PathFileType	4	(X/Y/Z)	C:/Users/opensim2020/Desktop/walking_exp_matlab/subject02_walking05_straight_02.trc																																																																																																																												
DataRate	CameraRate	NumFrames	NumMarkers	Units	OrigDataRate	OrigDataStartFrame	OrigNumFrames																																																																																																																								
100	100	4	42	mm	100	1548	243																																																																																																																								
Frame#	Time	LFHD			RFHD			LBHD			RBHD			C7			T10			CLAV			STRN			RBAK			LSHO			LUPA			LELB			LFRM			LWRA			LWRB			LFIN			RSHO			RUPA			RELB			RFRM			RWRA			RWRB			RFIN			LASI			RASI			LPSI			RPSI			LTHI			LKNE			LTIB			LANK			LHEE			LTOE			RTHI			RKNE			RTIB			RANK			RHEE			RTOE			*39			*40			*41		
		X1	Y1	Z1	X2	Y2	Z2	X3	Y3	Z3	X4	Y4	Z4	X5	Y5	Z5	X6	Y6	Z6	X7	Y7	Z7	X8	Y8	Z8	X9	Y9	Z9	X10	Y10	Z10	X11	Y11	Z11	X12	Y12	Z12	X13	Y13	Z13	X14	Y14	Z14	X15	Y15	Z15	X16	Y16	Z16	X17	Y17	Z17	X18	Y18	Z18	X19	Y19	Z19	X20	Y20	Z20	X21	Y21	Z21	X22	Y22	Z22	X23	Y23	Z23	X24	Y24	Z24	X25	Y25	Z25	X26	Y26	Z26	X27	Y27	Z27	X28	Y28	Z28	X29	Y29	Z29	X30	Y30	Z30	X31	Y31	Z31	X32	Y32	Z32	X33	Y33	Z33	X34	Y34	Z34	X35	Y35	Z35	X36	Y36	Z36	X37	Y37	Z37	X38	Y38	Z38	X39	Y39	Z39	X40	Y40	Z40	X41	Y41	Z41	X42	Y42	Z42
																																																																																																																															
183	1.82	547.26892	1755.52136	-1493.13293	543.29559	1730.84302	-1350.87756	428.20862	1664.64136	-1510.45618	412.1925	1637.96082	-1369.93469	380.67294	1528.33704	-1428.4314	330.46365	1253.24365	-1404.51672	517.91937	1460.82458	-1456.76782	570.63098	1289.08862	-1450.90186	334.56793	1357.74988	-1348.76294	425.79706	1500.25684	-1615.39075	386.48312	1303.47986	-1695.30933	372.92126	1163.5979	-1710.17273	377.90475	1031.96851	-1728.28162	436.37473	904.66748	-1708.46301	386.55304	909.01343	-1735.54248	404.61804	844.67059	-1742.8252	485.24838	1501.14258	-1255.20874	474.70981	1313.6488	-1158.32593	496.12543	1168.38123	-1138.34668	536.84406	1055.60486	-1120.7677	596.39844	934.77905	-1141.06604	553.1059	927.0835	-1104.87109	597.79474	869.51086	-1104.00427	538.92249	996.79999	-1568.58972	579.4046	982.19897	-1317.37146	344.84891	1034.30078	-1460.01062	358.07889	1034.55286	-1345.82971	518.54041	691.17462	-1646.6731	545.29034	498.95395	-1633.87537	457.10294	331.29529	-1611.7688	422.42075	110.82246	-1582.45935	406.2941	86.94999	-1520.82117	547.05646	44.9712	-1646.59631	502.26669	673.04126	-1249.11597	479.31396	463.20508	-1290.53064	423.82736	282.65271	-1279.51917	386.93719	92.11302	-1317.47839	344.4837	39.09132	-1370.13489	536.99933	34.52464	-1311.46338	433.59927	1804.11353	-1405.97559	-2845.10791	1033.84314	3360.1106	NaN	NaN	NaN
184	1.83	556.31116	1754.74829	-1495.00867	552.66229	1730.55469	-1352.71863	437.2424	1664.00549	-1511.64844	421.39111	1637.76465	-1371.03247	389.55627	1527.90552	-1429.11548	339.03091	1252.8999	-1405.15784	526.79749	1460.32092	-1457.72839	579.5625	1288.6394	-1451.24561	344.03061	1357.47791	-1348.57129	433.88239	1499.09753	-1616.09473	391.91595	1302.82568	-1695.40198	377.22141	1163.10083	-1710.31128	380.36774	1031.5249	-1729.09949	437.21805	903.57806	-1710.83301	386.94778	908.47211	-1736.76135	404.02103	844.13971	-1744.89661	494.80316	1501.39514	-1256.15491	486.12918	1313.86975	-1158.78821	509.52118	1168.875	-1138.35803	550.99115	1056.37988	-1121.23254	611.78693	936.28516	-1141.9613	569.02216	928.2168	-1105.23096	614.34802	871.06506	-1104.76453	548.27216	996.07843	-1568.98438	586.99823	980.53973	-1317.37988	353.3063	1034.10706	-1461.38354	366.02948	1034.23633	-1347.13086	528.95441	691.46155	-1647.58691	557.21204	498.34781	-1634.18774	476.59818	325.82693	-1614.87671	452.98196	103.19433	-1589.25623	437.7211	77.94825	-1527.90552	580.92529	43.85825	-1653.72668	507.23456	672.44183	-1249.9635	482.85092	462.79135	-1290.86658	425.70142	282.68878	-1279.98486	387.48352	92.33381	-1317.64783	344.60214	39.32598	-1370.48083	536.99603	34.49217	-1311.35559	442.87238	1803.83887	-1407.67029	-2845.37256	1033.69189	3360.30347	NaN	NaN	NaN
185	1.84	565.33551	1753.89758	-1497.00195	561.9538	1730.07471	-1354.56604	445.9035	1663.2887	-1513.18506	430.47751	1637.5498	-1372.37354	398.4191	1527.29419	-1429.97266	347.63382	1252.41248	-1406.03699	535.65741	1459.71545	-1458.77808	588.4021	1288.02161	-1451.69836	352.86877	1357.11902	-1349.09424	441.99823	1497.87195	-1616.85828	397.59546	1302.10718	-1695.6416	381.33154	1162.75281	-1710.91296	382.66	1031.05566	-1729.71326	438.23471	902.43567	-1713.18433	387.5303	908.10199	-1738.03455	403.9166	843.50189	-1746.76758	504.07852	1501.375	-1257.23901	498.0542	1314.09033	-1159.30493	522.7229	1169.22791	-1138.66956	565.66089	1057.12488	-1121.57446	627.40656	937.84314	-1142.96179	584.85791	929.24567	-1105.67688	630.58221	872.54529	-1105.66895	557.54529	995.10986	-1569.67212	594.93793	979.13098	-1317.58887	361.84238	1033.58093	-1462.85254	374.0939	1033.77893	-1348.5304	539.20264	691.53699	-1648.49939	568.71283	497.50113	-1634.61938	496.04459	320.55328	-1618.10034	483.63589	96.24072	-1596.24084	469.2901	69.87791	-1535.36609	614.51306	43.51985	-1661.06787	512.35938	671.63501	-1250.72083	485.76077	462.1586	-1291.69336	427.5123	282.64209	-1280.46448	387.70383	92.55108	-1318.01196	344.61911	39.48347	-1370.63733	537.04071	34.45972	-1311.24719	452.24915	1803.40088	-1409.62122	-2845.10742	1034.00562	3360.21143	NaN	NaN	NaN
186	1.85	574.37335	1752.87683	-1499.04187	571.26874	1729.53418	-1356.55042	454.90707	1662.3905	-1514.54626	439.55017	1637.16235	-1373.76196	407.46069	1526.67834	-1430.91846	356.16483	1251.84167	-1407.13391	544.53107	1458.95715	-1459.92004	597.21564	1287.2384	-1452.23975	361.66971	1356.86121	-1349.81653	450.20441	1496.53418	-1617.76172	403.63226	1301.15759	-1695.78088	385.69101	1162.27307	-1711.36755	385.18814	1030.62402	-1730.63293	439.39603	901.26923	-1715.57373	388.24289	907.59113	-1739.25806	403.47131	843.13452	-1748.85168	513.30524	1501.25818	-1258.43274	509.0603	1313.86707	-1160.03442	535.93561	1169.51489	-1139.1936	580.09491	1057.86377	-1122.39587	642.76538	938.92853	-1143.93481	600.65955	930.18793	-1106.32385	647.03314	873.89825	-1106.4989	567.61066	994.32599	-1570.85693	602.73444	977.52502	-1318.04968	370.40994	1032.84473	-1464.43823	382.31885	1033.29431	-1350.11975	549.17206	691.21179	-1649.34314	579.91479	496.33005	-1635.10876	515.53705	315.34933	-1621.55664	513.79443	90.60006	-1603.99158	500.6705	62.6848	-1543.0907	647.85461	44.3866	-1668.52856	517.45868	671.10297	-1251.56201	489.20883	461.84308	-1292.39453	429.32602	282.69092	-1280.96521	388.15323	92.71022	-1318.24976	344.66733	39.64872	-1370.92334	537.04956	34.40648	-1311.10352	461.55316	1802.74744	-1411.4989	-2845.07861	1033.80811	3360.21704	NaN	NaN	NaN
